# WaveFront *.obj file (generated by Autodesk ATF)

mtllib a2640c9e-b267-4f9c-a1d4-1957d72febf5.mtl

g base

v 7.500000 12.000000 0.000000
v 7.379472 12.000000 -1.339177
v 7.021762 12.000000 -2.635311
v 6.438366 12.000000 -3.846745
v 5.648036 12.000000 -4.934540
v 4.676174 12.000000 -5.863736
v 3.554015 12.000000 -6.604466
v 2.317627 12.000000 -7.132924
v 1.006749 12.000000 -7.432123
v -0.336486 12.000000 -7.492448
v -1.668907 12.000000 -7.311959
v -2.947688 12.000000 -6.896458
v -4.131727 12.000000 -6.259299
v -5.182970 12.000000 -5.420961
v -6.067627 12.000000 -4.408389
v -6.757267 12.000000 -3.254128
v -7.229721 12.000000 -1.995276
v -7.469807 12.000000 -0.672295
v -7.469807 12.000000 0.672295
v -7.229721 12.000000 1.995276
v -6.757267 12.000000 3.254128
v -6.067627 12.000000 4.408389
v -5.182970 12.000000 5.420961
v -4.131727 12.000000 6.259299
v -2.947688 12.000000 6.896458
v -1.668907 12.000000 7.311959
v -0.336486 12.000000 7.492448
v 1.006749 12.000000 7.432123
v 2.317627 12.000000 7.132924
v 3.554015 12.000000 6.604466
v 4.676174 12.000000 5.863736
v 5.648036 12.000000 4.934540
v 6.438366 12.000000 3.846745
v 7.021762 12.000000 2.635311
v 7.379472 12.000000 1.339177
v 10.000000 0.000000 0.000000
v 9.882804 0.000000 -1.526493
v 9.533964 0.000000 -3.017206
v 8.961656 0.000000 -4.437198
v 8.179294 0.000000 -5.753187
v 7.205216 0.000000 -6.934325
v 6.062254 0.000000 -7.952929
v 4.777198 0.000000 -8.785123
v 3.380169 0.000000 -9.411401
v 1.903911 0.000000 -9.817083
v 0.383027 0.000000 -9.992662
v -1.146834 0.000000 -9.934021
v -2.649815 0.000000 -9.642535
v -4.090686 0.000000 -9.125036
v -5.435676 0.000000 -8.393654
v -6.653257 0.000000 -7.465532
v -7.714892 0.000000 -6.362425
v -8.595696 0.000000 -5.110187
v -9.275025 0.000000 -3.738171
v -9.736954 0.000000 -2.278535
v -9.970658 0.000000 -0.765493
v -9.970658 0.000000 0.765493
v -9.736954 0.000000 2.278535
v -9.275025 0.000000 3.738171
v -8.595696 0.000000 5.110187
v -7.714892 0.000000 6.362425
v -6.653257 0.000000 7.465532
v -5.435676 0.000000 8.393654
v -4.090686 0.000000 9.125036
v -2.649815 0.000000 9.642535
v -1.146834 0.000000 9.934021
v 0.383027 0.000000 9.992662
v 1.903911 0.000000 9.817083
v 3.380169 0.000000 9.411401
v 4.777198 0.000000 8.785123
v 6.062254 0.000000 7.952929
v 7.205216 0.000000 6.934325
v 8.179294 0.000000 5.753187
v 8.961656 0.000000 4.437198
v 9.533964 0.000000 3.017206
v 9.882804 0.000000 1.526493
vt 0.133918 -0.012053 0.000000
vt 0.000000 0.000000 0.000000
vt 0.625930 -1.163173 0.000000
vt -0.133918 -0.012053 0.000000
vt -0.625930 -1.163173 0.000000
vt -0.263531 -0.047824 0.000000
vt -0.384674 -0.106163 0.000000
vt -0.493454 -0.185196 0.000000
vt -0.586374 -0.282383 0.000000
vt -0.660447 -0.394599 0.000000
vt -0.689646 -1.044769 0.000000
vt -0.713292 -0.518237 0.000000
vt -0.731196 -0.916891 0.000000
vt -0.743212 -0.649325 0.000000
vt -0.749245 -0.783649 0.000000
vt 0.542096 -1.268297 0.000000
vt -0.542096 -1.268297 0.000000
vt 0.440839 -1.356763 0.000000
vt -0.440839 -1.356763 0.000000
vt 0.325413 -1.425727 0.000000
vt -0.325413 -1.425727 0.000000
vt 0.199528 -1.472972 0.000000
vt -0.199528 -1.472972 0.000000
vt 0.067229 -1.496981 0.000000
vt -0.067229 -1.496981 0.000000
vt 0.689646 -1.044769 0.000000
vt 0.660447 -0.394599 0.000000
vt 0.586374 -0.282383 0.000000
vt 0.493454 -0.185196 0.000000
vt 0.713292 -0.518237 0.000000
vt 0.731196 -0.916891 0.000000
vt 0.743212 -0.649325 0.000000
vt 0.749245 -0.783649 0.000000
vt 0.384674 -0.106163 0.000000
vt 0.263531 -0.047824 0.000000
vt 0.612883 0.157080 0.000000
vt -0.612883 0.134092 0.000000
vt 0.612883 0.000000 0.000000
vt -0.612883 0.000000 0.000000
vt -0.612883 -0.134092 0.000000
vt -0.612883 0.268185 0.000000
vt 0.612883 0.314159 0.000000
vt -0.612883 0.402277 0.000000
vt 0.612883 0.471239 0.000000
vt -0.612883 0.536369 0.000000
vt 0.612883 0.628319 0.000000
vt -0.612883 0.670462 0.000000
vt 0.612883 0.785398 0.000000
vt -0.612883 0.804554 0.000000
vt 0.612883 0.942478 0.000000
vt -0.612883 0.938647 0.000000
vt -0.612883 1.072739 0.000000
vt 0.612883 1.099557 0.000000
vt -0.612883 1.206831 0.000000
vt 0.612883 1.256637 0.000000
vt -0.612883 1.340924 0.000000
vt 0.612883 1.413717 0.000000
vt -0.612883 1.475016 0.000000
vt 0.612883 1.570796 0.000000
vt -0.612883 1.609108 0.000000
vt 0.612883 1.727876 0.000000
vt -0.612883 1.743201 0.000000
vt 0.612883 1.884956 0.000000
vt -0.612883 1.877293 0.000000
vt -0.612883 2.011386 0.000000
vt 0.612883 2.042035 0.000000
vt -0.612883 2.145478 0.000000
vt 0.612883 2.199115 0.000000
vt -0.612883 2.279570 0.000000
vt 0.612883 2.356195 0.000000
vt -0.612883 2.413663 0.000000
vt 0.612883 2.513274 0.000000
vt -0.612883 2.547755 0.000000
vt 0.612883 2.670354 0.000000
vt -0.612883 2.681847 0.000000
vt 0.612883 2.827433 0.000000
vt -0.612883 2.815940 0.000000
vt -0.612883 -2.681847 0.000000
vt 0.612883 -2.670354 0.000000
vt -0.612883 -2.547755 0.000000
vt 0.612883 -2.513274 0.000000
vt -0.612883 -2.413663 0.000000
vt 0.612883 -2.356195 0.000000
vt -0.612883 -2.279570 0.000000
vt 0.612883 -2.199115 0.000000
vt -0.612883 -2.145478 0.000000
vt 0.612883 -2.042035 0.000000
vt -0.612883 -2.011386 0.000000
vt 0.612883 -1.884956 0.000000
vt -0.612883 -1.877293 0.000000
vt -0.612883 -1.743201 0.000000
vt 0.612883 -1.727876 0.000000
vt -0.612883 -1.609108 0.000000
vt 0.612883 -1.570796 0.000000
vt -0.612883 -1.475016 0.000000
vt 0.612883 -1.413717 0.000000
vt -0.612883 -1.340924 0.000000
vt 0.612883 -1.256637 0.000000
vt -0.612883 -1.206831 0.000000
vt 0.612883 -1.099557 0.000000
vt -0.612883 -1.072739 0.000000
vt 0.612883 -0.942478 0.000000
vt -0.612883 -0.938647 0.000000
vt -0.612883 -0.804554 0.000000
vt 0.612883 -0.785398 0.000000
vt -0.612883 -0.670462 0.000000
vt 0.612883 -0.628319 0.000000
vt -0.612883 -0.536369 0.000000
vt 0.612883 -0.471239 0.000000
vt -0.612883 -0.402277 0.000000
vt 0.612883 -0.314159 0.000000
vt -0.612883 -0.268185 0.000000
vt 0.612883 -0.157080 0.000000
vt 0.000000 1.000000 0.000000
vt -0.152649 0.988280 0.000000
vt 0.152649 0.988280 0.000000
vt 0.301721 0.953396 0.000000
vt -0.301721 0.953396 0.000000
vt 0.443720 0.896166 0.000000
vt -0.443720 0.896166 0.000000
vt 0.575319 0.817929 0.000000
vt -0.575319 0.817929 0.000000
vt 0.693433 0.720522 0.000000
vt -0.693433 0.720522 0.000000
vt 0.795293 0.606225 0.000000
vt -0.795293 0.606225 0.000000
vt 0.878512 0.477720 0.000000
vt -0.878512 0.477720 0.000000
vt 0.941140 0.338017 0.000000
vt -0.941140 0.338017 0.000000
vt 0.981708 0.190391 0.000000
vt -0.981708 0.190391 0.000000
vt 0.999266 0.038303 0.000000
vt -0.999266 0.038303 0.000000
vt 0.993402 -0.114683 0.000000
vt -0.993402 -0.114683 0.000000
vt 0.964254 -0.264982 0.000000
vt -0.964254 -0.264982 0.000000
vt 0.912504 -0.409069 0.000000
vt -0.912504 -0.409069 0.000000
vt 0.839365 -0.543568 0.000000
vt -0.839365 -0.543568 0.000000
vt 0.746553 -0.665326 0.000000
vt -0.746553 -0.665326 0.000000
vt 0.636242 -0.771489 0.000000
vt -0.636242 -0.771489 0.000000
vt 0.511019 -0.859570 0.000000
vt -0.511019 -0.859570 0.000000
vt 0.373817 -0.927502 0.000000
vt -0.373817 -0.927502 0.000000
vt 0.227854 -0.973695 0.000000
vt -0.227854 -0.973695 0.000000
vt 0.076549 -0.997066 0.000000
vt -0.076549 -0.997066 0.000000
vn -0.000000 0.100000 -0.000000
vn -0.000000 0.100000 -0.000000
vn -0.000000 0.100000 -0.000000
vn -0.000000 0.100000 -0.000000
vn -0.000000 0.100000 -0.000000
vn -0.000000 0.100000 -0.000000
vn -0.000000 0.100000 -0.000000
vn -0.000000 0.100000 -0.000000
vn -0.000000 0.100000 -0.000000
vn -0.000000 0.100000 -0.000000
vn -0.000000 0.100000 -0.000000
vn -0.000000 0.100000 -0.000000
vn -0.000000 0.100000 -0.000000
vn -0.000000 0.100000 -0.000000
vn -0.000000 0.100000 -0.000000
vn -0.000000 0.100000 -0.000000
vn -0.000000 0.100000 -0.000000
vn -0.000000 0.100000 -0.000000
vn -0.000000 0.100000 -0.000000
vn -0.000000 0.100000 -0.000000
vn -0.000000 0.100000 -0.000000
vn -0.000000 0.100000 -0.000000
vn -0.000000 0.100000 -0.000000
vn -0.000000 0.100000 -0.000000
vn -0.000000 0.100000 -0.000000
vn -0.000000 0.100000 -0.000000
vn -0.000000 0.100000 -0.000000
vn -0.000000 0.100000 -0.000000
vn -0.000000 0.100000 -0.000000
vn -0.000000 0.100000 -0.000000
vn -0.000000 0.100000 -0.000000
vn -0.000000 0.100000 -0.000000
vn -0.000000 0.100000 -0.000000
vn -0.000000 0.100000 -0.000000
vn -0.000000 0.100000 -0.000000
vn 0.096325 0.020395 0.017480
vn 0.096751 0.020395 0.014944
vn 0.097898 0.020395 0.000000
vn 0.097898 0.020395 0.000000
vn 0.096751 0.020395 -0.014944
vn 0.093336 0.020395 0.029538
vn 0.091656 0.020395 0.034399
vn 0.087733 0.020395 0.043439
vn 0.084040 0.020395 0.050212
vn 0.080074 0.020395 0.056323
vn 0.073724 0.020395 0.064411
vn 0.070538 0.020395 0.067886
vn 0.061038 0.020395 0.076540
vn 0.059348 0.020395 0.077858
vn 0.046391 0.020395 0.086209
vn 0.046768 0.020395 0.086005
vn 0.033091 0.020395 0.092136
vn 0.030252 0.020395 0.093107
vn 0.018639 0.020395 0.096107
vn 0.013141 0.020395 0.097012
vn 0.003750 0.020395 0.097826
vn -0.004392 0.020395 0.097799
vn -0.011227 0.020395 0.097252
vn -0.021784 0.020395 0.095444
vn -0.025941 0.020395 0.094399
vn -0.038476 0.020395 0.090020
vn -0.040047 0.020395 0.089332
vn -0.053932 0.020395 0.081703
vn -0.053214 0.020395 0.082172
vn -0.065134 0.020395 0.073086
vn -0.067654 0.020395 0.070760
vn -0.075527 0.020395 0.062287
vn -0.079201 0.020395 0.057543
vn -0.084150 0.020395 0.050028
vn -0.088203 0.020395 0.042476
vn -0.090801 0.020395 0.036596
vn -0.094370 0.020395 0.026044
vn -0.095323 0.020395 0.022306
vn -0.097504 0.020395 0.008776
vn -0.097611 0.020395 0.007494
vn -0.097504 0.020395 -0.008776
vn -0.097611 0.020395 -0.007494
vn -0.095323 0.020395 -0.022306
vn -0.094370 0.020395 -0.026044
vn -0.090801 0.020395 -0.036596
vn -0.088203 0.020395 -0.042476
vn -0.084150 0.020395 -0.050028
vn -0.079201 0.020395 -0.057543
vn -0.075527 0.020395 -0.062287
vn -0.067654 0.020395 -0.070760
vn -0.065134 0.020395 -0.073086
vn -0.053932 0.020395 -0.081703
vn -0.053214 0.020395 -0.082172
vn -0.040047 0.020395 -0.089332
vn -0.038476 0.020395 -0.090020
vn -0.025941 0.020395 -0.094399
vn -0.021784 0.020395 -0.095444
vn -0.011227 0.020395 -0.097252
vn -0.004392 0.020395 -0.097799
vn 0.003750 0.020395 -0.097826
vn 0.013141 0.020395 -0.097012
vn 0.018639 0.020395 -0.096107
vn 0.030252 0.020395 -0.093107
vn 0.033091 0.020395 -0.092136
vn 0.046391 0.020395 -0.086209
vn 0.046768 0.020395 -0.086005
vn 0.059348 0.020395 -0.077858
vn 0.061038 0.020395 -0.076540
vn 0.070538 0.020395 -0.067886
vn 0.073724 0.020395 -0.064411
vn 0.080074 0.020395 -0.056323
vn 0.084040 0.020395 -0.050212
vn 0.087733 0.020395 -0.043439
vn 0.091656 0.020395 -0.034399
vn 0.093336 0.020395 -0.029538
vn 0.096325 0.020395 -0.017480
vn 0.000000 -0.100000 0.000000
vn 0.000000 -0.100000 0.000000
vn 0.000000 -0.100000 0.000000
vn 0.000000 -0.100000 0.000000
vn 0.000000 -0.100000 0.000000
vn 0.000000 -0.100000 0.000000
vn 0.000000 -0.100000 0.000000
vn 0.000000 -0.100000 0.000000
vn 0.000000 -0.100000 0.000000
vn 0.000000 -0.100000 0.000000
vn 0.000000 -0.100000 0.000000
vn 0.000000 -0.100000 0.000000
vn 0.000000 -0.100000 0.000000
vn 0.000000 -0.100000 0.000000
vn 0.000000 -0.100000 0.000000
vn 0.000000 -0.100000 0.000000
vn 0.000000 -0.100000 0.000000
vn 0.000000 -0.100000 0.000000
vn 0.000000 -0.100000 0.000000
vn 0.000000 -0.100000 0.000000
vn 0.000000 -0.100000 0.000000
vn 0.000000 -0.100000 0.000000
vn 0.000000 -0.100000 0.000000
vn 0.000000 -0.100000 0.000000
vn 0.000000 -0.100000 0.000000
vn 0.000000 -0.100000 0.000000
vn 0.000000 -0.100000 0.000000
vn 0.000000 -0.100000 0.000000
vn 0.000000 -0.100000 0.000000
vn 0.000000 -0.100000 0.000000
vn 0.000000 -0.100000 0.000000
vn 0.000000 -0.100000 0.000000
vn 0.000000 -0.100000 0.000000
vn 0.000000 -0.100000 0.000000
vn 0.000000 -0.100000 0.000000
vn 0.000000 -0.100000 0.000000
vn 0.000000 -0.100000 0.000000
vn 0.000000 -0.100000 0.000000
vn 0.000000 -0.100000 0.000000
vn 0.000000 -0.100000 0.000000
vn 0.000000 -0.100000 0.000000
usemtl Steel_-_Satin
f 35/1/1 1/2/2 24/3/3
f 24/3/3 1/2/2 2/4/4
f 24/3/3 2/4/4 13/5/5
f 13/5/5 2/4/4 3/6/6
f 13/5/5 3/6/6 4/7/7
f 4/7/7 5/8/8 13/5/5
f 13/5/5 5/8/8 6/9/9
f 13/5/5 6/9/9 7/10/10
f 13/5/5 7/10/10 12/11/11
f 12/11/11 7/10/10 8/12/12
f 12/11/11 8/12/12 11/13/13
f 11/13/13 8/12/12 9/14/14
f 11/13/13 9/14/14 10/15/15
f 24/3/3 13/5/5 23/16/16
f 23/16/16 13/5/5 14/17/17
f 23/16/16 14/17/17 22/18/18
f 22/18/18 14/17/17 15/19/19
f 22/18/18 15/19/19 21/20/20
f 21/20/20 15/19/19 16/21/21
f 21/20/20 16/21/21 20/22/22
f 20/22/22 16/21/21 17/23/23
f 20/22/22 17/23/23 19/24/24
f 19/24/24 17/23/23 18/25/25
f 25/26/26 30/27/27 24/3/3
f 24/3/3 30/27/27 31/28/28
f 24/3/3 31/28/28 32/29/29
f 30/27/27 25/26/26 29/30/30
f 29/30/30 25/26/26 26/31/31
f 29/30/30 26/31/31 28/32/32
f 28/32/32 26/31/31 27/33/33
f 32/29/29 33/34/34 24/3/3
f 24/3/3 33/34/34 34/35/35
f 24/3/3 34/35/35 35/1/1
f 35/36/36 76/37/37 1/38/38
f 1/38/38 76/37/37 36/39/39
f 1/38/38 36/39/39 37/40/40
f 76/37/37 35/36/36 75/41/41
f 75/41/41 35/36/36 34/42/42
f 75/41/41 34/42/42 74/43/43
f 74/43/43 34/42/42 33/44/44
f 74/43/43 33/44/44 73/45/45
f 73/45/45 33/44/44 32/46/46
f 73/45/45 32/46/46 72/47/47
f 72/47/47 32/46/46 31/48/48
f 72/47/47 31/48/48 71/49/49
f 71/49/49 31/48/48 30/50/50
f 71/49/49 30/50/50 70/51/51
f 70/51/51 30/50/50 69/52/52
f 69/52/52 30/50/50 29/53/53
f 69/52/52 29/53/53 68/54/54
f 68/54/54 29/53/53 28/55/55
f 68/54/54 28/55/55 67/56/56
f 67/56/56 28/55/55 27/57/57
f 67/56/56 27/57/57 66/58/58
f 66/58/58 27/57/57 26/59/59
f 66/58/58 26/59/59 65/60/60
f 65/60/60 26/59/59 25/61/61
f 65/60/60 25/61/61 64/62/62
f 64/62/62 25/61/61 24/63/63
f 64/62/62 24/63/63 63/64/64
f 63/64/64 24/63/63 62/65/65
f 62/65/65 24/63/63 23/66/66
f 62/65/65 23/66/66 61/67/67
f 61/67/67 23/66/66 22/68/68
f 61/67/67 22/68/68 60/69/69
f 60/69/69 22/68/68 21/70/70
f 60/69/69 21/70/70 59/71/71
f 59/71/71 21/70/70 20/72/72
f 59/71/71 20/72/72 58/73/73
f 58/73/73 20/72/72 19/74/74
f 58/73/73 19/74/74 57/75/75
f 57/75/75 19/74/74 18/76/76
f 57/75/75 18/76/76 56/77/77
f 56/78/77 18/79/76 55/80/78
f 55/80/78 18/79/76 17/81/79
f 55/80/78 17/81/79 54/82/80
f 54/82/80 17/81/79 16/83/81
f 54/82/80 16/83/81 53/84/82
f 53/84/82 16/83/81 15/85/83
f 53/84/82 15/85/83 52/86/84
f 52/86/84 15/85/83 14/87/85
f 52/86/84 14/87/85 51/88/86
f 51/88/86 14/87/85 13/89/87
f 51/88/86 13/89/87 50/90/88
f 50/90/88 13/89/87 49/91/89
f 49/91/89 13/89/87 12/92/90
f 49/91/89 12/92/90 48/93/91
f 48/93/91 12/92/90 11/94/92
f 48/93/91 11/94/92 47/95/93
f 47/95/93 11/94/92 10/96/94
f 47/95/93 10/96/94 46/97/95
f 46/97/95 10/96/94 9/98/96
f 46/97/95 9/98/96 45/99/97
f 45/99/97 9/98/96 8/100/98
f 45/99/97 8/100/98 44/101/99
f 44/101/99 8/100/98 7/102/100
f 44/101/99 7/102/100 43/103/101
f 43/103/101 7/102/100 42/104/102
f 42/104/102 7/102/100 6/105/103
f 42/104/102 6/105/103 41/106/104
f 41/106/104 6/105/103 5/107/105
f 41/106/104 5/107/105 40/108/106
f 40/108/106 5/107/105 4/109/107
f 40/108/106 4/109/107 39/110/108
f 39/110/108 4/109/107 3/111/109
f 39/110/108 3/111/109 38/112/110
f 38/112/110 3/111/109 2/113/111
f 38/112/110 2/113/111 37/40/40
f 37/40/40 2/113/111 1/38/38
f 36/114/112 76/115/113 37/116/114
f 37/116/114 76/115/113 38/117/115
f 38/117/115 76/115/113 75/118/116
f 38/117/115 75/118/116 39/119/117
f 39/119/117 75/118/116 74/120/118
f 39/119/117 74/120/118 40/121/119
f 40/121/119 74/120/118 73/122/120
f 40/121/119 73/122/120 41/123/121
f 41/123/121 73/122/120 72/124/122
f 41/123/121 72/124/122 42/125/123
f 42/125/123 72/124/122 71/126/124
f 42/125/123 71/126/124 43/127/125
f 43/127/125 71/126/124 70/128/126
f 43/127/125 70/128/126 44/129/127
f 44/129/127 70/128/126 69/130/128
f 44/129/127 69/130/128 45/131/129
f 45/131/129 69/130/128 68/132/130
f 45/131/129 68/132/130 46/133/131
f 46/133/131 68/132/130 67/134/132
f 46/133/131 67/134/132 47/135/133
f 47/135/133 67/134/132 66/136/134
f 47/135/133 66/136/134 48/137/135
f 48/137/135 66/136/134 65/138/136
f 48/137/135 65/138/136 49/139/137
f 49/139/137 65/138/136 64/140/138
f 49/139/137 64/140/138 50/141/139
f 50/141/139 64/140/138 63/142/140
f 50/141/139 63/142/140 51/143/141
f 51/143/141 63/142/140 62/144/142
f 51/143/141 62/144/142 52/145/143
f 52/145/143 62/144/142 61/146/144
f 52/145/143 61/146/144 53/147/145
f 53/147/145 61/146/144 60/148/146
f 53/147/145 60/148/146 54/149/147
f 54/149/147 60/148/146 59/150/148
f 54/149/147 59/150/148 55/151/149
f 55/151/149 59/150/148 58/152/150
f 55/151/149 58/152/150 56/153/151
f 56/153/151 58/152/150 57/154/152

# 76 vertices
# 154 texture params
# 152 normals
# 148 facets

# 1 groups
